<mxfile host="app.diagrams.net" agent="Mozilla/5.0 (Windows NT 10.0; Win64; x64) AppleWebKit/537.36 (KHTML, like Gecko) Chrome/137.0.0.0 Safari/537.36" version="27.1.6">
  <diagram name="Page-1" id="tpKkRWOGO1ExZRL-oSUP">
    <mxGraphModel grid="1" page="1" gridSize="10" guides="1" tooltips="1" connect="1" arrows="1" fold="1" pageScale="1" pageWidth="1920" pageHeight="1200" math="0" shadow="0">
      <root>
        <mxCell id="0" />
        <mxCell id="1" parent="0" />
        <mxCell id="YA1a-GJQUqU829EVLrWt-1" value="&lt;font style=&quot;font-size: 32px;&quot;&gt;&lt;b&gt;Data Mart&lt;/b&gt;&lt;/font&gt;" style="text;html=1;align=center;verticalAlign=middle;whiteSpace=wrap;rounded=0;" vertex="1" parent="1">
          <mxGeometry x="70" y="80" width="210" height="60" as="geometry" />
        </mxCell>
        <mxCell id="YA1a-GJQUqU829EVLrWt-2" value="&lt;font style=&quot;font-size: 24px;&quot;&gt;(Star Schema)&lt;/font&gt;" style="text;html=1;align=center;verticalAlign=middle;whiteSpace=wrap;rounded=0;" vertex="1" parent="1">
          <mxGeometry x="250" y="90" width="170" height="40" as="geometry" />
        </mxCell>
        <mxCell id="YA1a-GJQUqU829EVLrWt-16" value="gold.dim_customers" style="shape=table;startSize=50;container=1;collapsible=1;childLayout=tableLayout;fixedRows=1;rowLines=0;fontStyle=1;align=center;resizeLast=1;html=1;rounded=1;fillColor=#fff2cc;strokeColor=#d6b656;fontSize=16;" vertex="1" parent="1">
          <mxGeometry x="85" y="160" width="235" height="440" as="geometry" />
        </mxCell>
        <mxCell id="YA1a-GJQUqU829EVLrWt-17" value="" style="shape=tableRow;horizontal=0;startSize=0;swimlaneHead=0;swimlaneBody=0;fillColor=none;collapsible=0;dropTarget=0;points=[[0,0.5],[1,0.5]];portConstraint=eastwest;top=0;left=0;right=0;bottom=1;fontSize=16;" vertex="1" parent="YA1a-GJQUqU829EVLrWt-16">
          <mxGeometry y="50" width="235" height="39" as="geometry" />
        </mxCell>
        <mxCell id="YA1a-GJQUqU829EVLrWt-18" value="PK" style="shape=partialRectangle;connectable=0;fillColor=none;top=0;left=0;bottom=0;right=0;fontStyle=1;overflow=hidden;whiteSpace=wrap;html=1;fontSize=16;" vertex="1" parent="YA1a-GJQUqU829EVLrWt-17">
          <mxGeometry width="30" height="39" as="geometry">
            <mxRectangle width="30" height="39" as="alternateBounds" />
          </mxGeometry>
        </mxCell>
        <mxCell id="YA1a-GJQUqU829EVLrWt-19" value="customer_key" style="shape=partialRectangle;connectable=0;fillColor=none;top=0;left=0;bottom=0;right=0;align=left;spacingLeft=6;fontStyle=5;overflow=hidden;whiteSpace=wrap;html=1;fontSize=16;" vertex="1" parent="YA1a-GJQUqU829EVLrWt-17">
          <mxGeometry x="30" width="205" height="39" as="geometry">
            <mxRectangle width="205" height="39" as="alternateBounds" />
          </mxGeometry>
        </mxCell>
        <mxCell id="YA1a-GJQUqU829EVLrWt-20" value="" style="shape=tableRow;horizontal=0;startSize=0;swimlaneHead=0;swimlaneBody=0;fillColor=none;collapsible=0;dropTarget=0;points=[[0,0.5],[1,0.5]];portConstraint=eastwest;top=0;left=0;right=0;bottom=0;fontSize=16;" vertex="1" parent="YA1a-GJQUqU829EVLrWt-16">
          <mxGeometry y="89" width="235" height="39" as="geometry" />
        </mxCell>
        <mxCell id="YA1a-GJQUqU829EVLrWt-21" value="" style="shape=partialRectangle;connectable=0;fillColor=none;top=0;left=0;bottom=0;right=0;editable=1;overflow=hidden;whiteSpace=wrap;html=1;fontSize=16;" vertex="1" parent="YA1a-GJQUqU829EVLrWt-20">
          <mxGeometry width="30" height="39" as="geometry">
            <mxRectangle width="30" height="39" as="alternateBounds" />
          </mxGeometry>
        </mxCell>
        <mxCell id="YA1a-GJQUqU829EVLrWt-22" value="customer_id" style="shape=partialRectangle;connectable=0;fillColor=none;top=0;left=0;bottom=0;right=0;align=left;spacingLeft=6;overflow=hidden;whiteSpace=wrap;html=1;fontSize=16;" vertex="1" parent="YA1a-GJQUqU829EVLrWt-20">
          <mxGeometry x="30" width="205" height="39" as="geometry">
            <mxRectangle width="205" height="39" as="alternateBounds" />
          </mxGeometry>
        </mxCell>
        <mxCell id="YA1a-GJQUqU829EVLrWt-23" value="" style="shape=tableRow;horizontal=0;startSize=0;swimlaneHead=0;swimlaneBody=0;fillColor=none;collapsible=0;dropTarget=0;points=[[0,0.5],[1,0.5]];portConstraint=eastwest;top=0;left=0;right=0;bottom=0;fontSize=16;" vertex="1" parent="YA1a-GJQUqU829EVLrWt-16">
          <mxGeometry y="128" width="235" height="39" as="geometry" />
        </mxCell>
        <mxCell id="YA1a-GJQUqU829EVLrWt-24" value="" style="shape=partialRectangle;connectable=0;fillColor=none;top=0;left=0;bottom=0;right=0;editable=1;overflow=hidden;whiteSpace=wrap;html=1;fontSize=16;" vertex="1" parent="YA1a-GJQUqU829EVLrWt-23">
          <mxGeometry width="30" height="39" as="geometry">
            <mxRectangle width="30" height="39" as="alternateBounds" />
          </mxGeometry>
        </mxCell>
        <mxCell id="YA1a-GJQUqU829EVLrWt-25" value="customer_number" style="shape=partialRectangle;connectable=0;fillColor=none;top=0;left=0;bottom=0;right=0;align=left;spacingLeft=6;overflow=hidden;whiteSpace=wrap;html=1;fontSize=16;" vertex="1" parent="YA1a-GJQUqU829EVLrWt-23">
          <mxGeometry x="30" width="205" height="39" as="geometry">
            <mxRectangle width="205" height="39" as="alternateBounds" />
          </mxGeometry>
        </mxCell>
        <mxCell id="YA1a-GJQUqU829EVLrWt-26" value="" style="shape=tableRow;horizontal=0;startSize=0;swimlaneHead=0;swimlaneBody=0;fillColor=none;collapsible=0;dropTarget=0;points=[[0,0.5],[1,0.5]];portConstraint=eastwest;top=0;left=0;right=0;bottom=0;fontSize=16;" vertex="1" parent="YA1a-GJQUqU829EVLrWt-16">
          <mxGeometry y="167" width="235" height="39" as="geometry" />
        </mxCell>
        <mxCell id="YA1a-GJQUqU829EVLrWt-27" value="" style="shape=partialRectangle;connectable=0;fillColor=none;top=0;left=0;bottom=0;right=0;editable=1;overflow=hidden;whiteSpace=wrap;html=1;fontSize=16;" vertex="1" parent="YA1a-GJQUqU829EVLrWt-26">
          <mxGeometry width="30" height="39" as="geometry">
            <mxRectangle width="30" height="39" as="alternateBounds" />
          </mxGeometry>
        </mxCell>
        <mxCell id="YA1a-GJQUqU829EVLrWt-28" value="first_name" style="shape=partialRectangle;connectable=0;fillColor=none;top=0;left=0;bottom=0;right=0;align=left;spacingLeft=6;overflow=hidden;whiteSpace=wrap;html=1;fontSize=16;" vertex="1" parent="YA1a-GJQUqU829EVLrWt-26">
          <mxGeometry x="30" width="205" height="39" as="geometry">
            <mxRectangle width="205" height="39" as="alternateBounds" />
          </mxGeometry>
        </mxCell>
        <mxCell id="YA1a-GJQUqU829EVLrWt-29" value="" style="shape=tableRow;horizontal=0;startSize=0;swimlaneHead=0;swimlaneBody=0;fillColor=none;collapsible=0;dropTarget=0;points=[[0,0.5],[1,0.5]];portConstraint=eastwest;top=0;left=0;right=0;bottom=0;fontSize=16;" vertex="1" parent="YA1a-GJQUqU829EVLrWt-16">
          <mxGeometry y="206" width="235" height="39" as="geometry" />
        </mxCell>
        <mxCell id="YA1a-GJQUqU829EVLrWt-30" value="" style="shape=partialRectangle;connectable=0;fillColor=none;top=0;left=0;bottom=0;right=0;editable=1;overflow=hidden;whiteSpace=wrap;html=1;fontSize=16;" vertex="1" parent="YA1a-GJQUqU829EVLrWt-29">
          <mxGeometry width="30" height="39" as="geometry">
            <mxRectangle width="30" height="39" as="alternateBounds" />
          </mxGeometry>
        </mxCell>
        <mxCell id="YA1a-GJQUqU829EVLrWt-31" value="last_name" style="shape=partialRectangle;connectable=0;fillColor=none;top=0;left=0;bottom=0;right=0;align=left;spacingLeft=6;overflow=hidden;whiteSpace=wrap;html=1;fontSize=16;" vertex="1" parent="YA1a-GJQUqU829EVLrWt-29">
          <mxGeometry x="30" width="205" height="39" as="geometry">
            <mxRectangle width="205" height="39" as="alternateBounds" />
          </mxGeometry>
        </mxCell>
        <mxCell id="YA1a-GJQUqU829EVLrWt-125" style="shape=tableRow;horizontal=0;startSize=0;swimlaneHead=0;swimlaneBody=0;fillColor=none;collapsible=0;dropTarget=0;points=[[0,0.5],[1,0.5]];portConstraint=eastwest;top=0;left=0;right=0;bottom=0;fontSize=16;" vertex="1" parent="YA1a-GJQUqU829EVLrWt-16">
          <mxGeometry y="245" width="235" height="39" as="geometry" />
        </mxCell>
        <mxCell id="YA1a-GJQUqU829EVLrWt-126" style="shape=partialRectangle;connectable=0;fillColor=none;top=0;left=0;bottom=0;right=0;editable=1;overflow=hidden;whiteSpace=wrap;html=1;fontSize=16;" vertex="1" parent="YA1a-GJQUqU829EVLrWt-125">
          <mxGeometry width="30" height="39" as="geometry">
            <mxRectangle width="30" height="39" as="alternateBounds" />
          </mxGeometry>
        </mxCell>
        <mxCell id="YA1a-GJQUqU829EVLrWt-127" value="country" style="shape=partialRectangle;connectable=0;fillColor=none;top=0;left=0;bottom=0;right=0;align=left;spacingLeft=6;overflow=hidden;whiteSpace=wrap;html=1;fontSize=16;" vertex="1" parent="YA1a-GJQUqU829EVLrWt-125">
          <mxGeometry x="30" width="205" height="39" as="geometry">
            <mxRectangle width="205" height="39" as="alternateBounds" />
          </mxGeometry>
        </mxCell>
        <mxCell id="YA1a-GJQUqU829EVLrWt-32" value="" style="shape=tableRow;horizontal=0;startSize=0;swimlaneHead=0;swimlaneBody=0;fillColor=none;collapsible=0;dropTarget=0;points=[[0,0.5],[1,0.5]];portConstraint=eastwest;top=0;left=0;right=0;bottom=0;fontSize=16;" vertex="1" parent="YA1a-GJQUqU829EVLrWt-16">
          <mxGeometry y="284" width="235" height="39" as="geometry" />
        </mxCell>
        <mxCell id="YA1a-GJQUqU829EVLrWt-33" value="" style="shape=partialRectangle;connectable=0;fillColor=none;top=0;left=0;bottom=0;right=0;editable=1;overflow=hidden;whiteSpace=wrap;html=1;fontSize=16;" vertex="1" parent="YA1a-GJQUqU829EVLrWt-32">
          <mxGeometry width="30" height="39" as="geometry">
            <mxRectangle width="30" height="39" as="alternateBounds" />
          </mxGeometry>
        </mxCell>
        <mxCell id="YA1a-GJQUqU829EVLrWt-34" value="marital status" style="shape=partialRectangle;connectable=0;fillColor=none;top=0;left=0;bottom=0;right=0;align=left;spacingLeft=6;overflow=hidden;whiteSpace=wrap;html=1;fontSize=16;" vertex="1" parent="YA1a-GJQUqU829EVLrWt-32">
          <mxGeometry x="30" width="205" height="39" as="geometry">
            <mxRectangle width="205" height="39" as="alternateBounds" />
          </mxGeometry>
        </mxCell>
        <mxCell id="YA1a-GJQUqU829EVLrWt-35" value="" style="shape=tableRow;horizontal=0;startSize=0;swimlaneHead=0;swimlaneBody=0;fillColor=none;collapsible=0;dropTarget=0;points=[[0,0.5],[1,0.5]];portConstraint=eastwest;top=0;left=0;right=0;bottom=0;fontSize=16;" vertex="1" parent="YA1a-GJQUqU829EVLrWt-16">
          <mxGeometry y="323" width="235" height="39" as="geometry" />
        </mxCell>
        <mxCell id="YA1a-GJQUqU829EVLrWt-36" value="" style="shape=partialRectangle;connectable=0;fillColor=none;top=0;left=0;bottom=0;right=0;editable=1;overflow=hidden;whiteSpace=wrap;html=1;fontSize=16;" vertex="1" parent="YA1a-GJQUqU829EVLrWt-35">
          <mxGeometry width="30" height="39" as="geometry">
            <mxRectangle width="30" height="39" as="alternateBounds" />
          </mxGeometry>
        </mxCell>
        <mxCell id="YA1a-GJQUqU829EVLrWt-37" value="gender" style="shape=partialRectangle;connectable=0;fillColor=none;top=0;left=0;bottom=0;right=0;align=left;spacingLeft=6;overflow=hidden;whiteSpace=wrap;html=1;fontSize=16;" vertex="1" parent="YA1a-GJQUqU829EVLrWt-35">
          <mxGeometry x="30" width="205" height="39" as="geometry">
            <mxRectangle width="205" height="39" as="alternateBounds" />
          </mxGeometry>
        </mxCell>
        <mxCell id="YA1a-GJQUqU829EVLrWt-41" value="" style="shape=tableRow;horizontal=0;startSize=0;swimlaneHead=0;swimlaneBody=0;fillColor=none;collapsible=0;dropTarget=0;points=[[0,0.5],[1,0.5]];portConstraint=eastwest;top=0;left=0;right=0;bottom=0;fontSize=16;" vertex="1" parent="YA1a-GJQUqU829EVLrWt-16">
          <mxGeometry y="362" width="235" height="39" as="geometry" />
        </mxCell>
        <mxCell id="YA1a-GJQUqU829EVLrWt-42" value="" style="shape=partialRectangle;connectable=0;fillColor=none;top=0;left=0;bottom=0;right=0;editable=1;overflow=hidden;whiteSpace=wrap;html=1;fontSize=16;" vertex="1" parent="YA1a-GJQUqU829EVLrWt-41">
          <mxGeometry width="30" height="39" as="geometry">
            <mxRectangle width="30" height="39" as="alternateBounds" />
          </mxGeometry>
        </mxCell>
        <mxCell id="YA1a-GJQUqU829EVLrWt-43" value="birthdate" style="shape=partialRectangle;connectable=0;fillColor=none;top=0;left=0;bottom=0;right=0;align=left;spacingLeft=6;overflow=hidden;whiteSpace=wrap;html=1;fontSize=16;" vertex="1" parent="YA1a-GJQUqU829EVLrWt-41">
          <mxGeometry x="30" width="205" height="39" as="geometry">
            <mxRectangle width="205" height="39" as="alternateBounds" />
          </mxGeometry>
        </mxCell>
        <mxCell id="YA1a-GJQUqU829EVLrWt-44" value="" style="shape=tableRow;horizontal=0;startSize=0;swimlaneHead=0;swimlaneBody=0;fillColor=none;collapsible=0;dropTarget=0;points=[[0,0.5],[1,0.5]];portConstraint=eastwest;top=0;left=0;right=0;bottom=0;fontSize=16;" vertex="1" parent="YA1a-GJQUqU829EVLrWt-16">
          <mxGeometry y="401" width="235" height="39" as="geometry" />
        </mxCell>
        <mxCell id="YA1a-GJQUqU829EVLrWt-45" value="" style="shape=partialRectangle;connectable=0;fillColor=none;top=0;left=0;bottom=0;right=0;editable=1;overflow=hidden;whiteSpace=wrap;html=1;fontSize=16;" vertex="1" parent="YA1a-GJQUqU829EVLrWt-44">
          <mxGeometry width="30" height="39" as="geometry">
            <mxRectangle width="30" height="39" as="alternateBounds" />
          </mxGeometry>
        </mxCell>
        <mxCell id="YA1a-GJQUqU829EVLrWt-46" value="create_date" style="shape=partialRectangle;connectable=0;fillColor=none;top=0;left=0;bottom=0;right=0;align=left;spacingLeft=6;overflow=hidden;whiteSpace=wrap;html=1;fontSize=16;" vertex="1" parent="YA1a-GJQUqU829EVLrWt-44">
          <mxGeometry x="30" width="205" height="39" as="geometry">
            <mxRectangle width="205" height="39" as="alternateBounds" />
          </mxGeometry>
        </mxCell>
        <mxCell id="YA1a-GJQUqU829EVLrWt-81" value="gold.fact_sales" style="shape=table;startSize=50;container=1;collapsible=1;childLayout=tableLayout;fixedRows=1;rowLines=0;fontStyle=1;align=center;resizeLast=1;html=1;rounded=1;fillColor=#dae8fc;strokeColor=#6c8ebf;fontSize=16;" vertex="1" parent="1">
          <mxGeometry x="470" y="160" width="235" height="401" as="geometry" />
        </mxCell>
        <mxCell id="YA1a-GJQUqU829EVLrWt-122" style="shape=tableRow;horizontal=0;startSize=0;swimlaneHead=0;swimlaneBody=0;fillColor=none;collapsible=0;dropTarget=0;points=[[0,0.5],[1,0.5]];portConstraint=eastwest;top=0;left=0;right=0;bottom=0;fontSize=16;movableLabel=1;" vertex="1" parent="YA1a-GJQUqU829EVLrWt-81">
          <mxGeometry y="50" width="235" height="39" as="geometry" />
        </mxCell>
        <mxCell id="YA1a-GJQUqU829EVLrWt-123" style="shape=partialRectangle;connectable=0;fillColor=none;top=0;left=0;bottom=0;right=0;editable=1;overflow=hidden;whiteSpace=wrap;html=1;fontSize=16;movableLabel=1;" vertex="1" parent="YA1a-GJQUqU829EVLrWt-122">
          <mxGeometry width="50" height="39" as="geometry">
            <mxRectangle width="50" height="39" as="alternateBounds" />
          </mxGeometry>
        </mxCell>
        <mxCell id="YA1a-GJQUqU829EVLrWt-124" value="order_number" style="shape=partialRectangle;connectable=0;fillColor=none;top=0;left=0;bottom=0;right=0;align=left;spacingLeft=6;overflow=hidden;whiteSpace=wrap;html=1;fontSize=16;movableLabel=1;" vertex="1" parent="YA1a-GJQUqU829EVLrWt-122">
          <mxGeometry x="50" width="185" height="39" as="geometry">
            <mxRectangle width="185" height="39" as="alternateBounds" />
          </mxGeometry>
        </mxCell>
        <mxCell id="YA1a-GJQUqU829EVLrWt-85" value="" style="shape=tableRow;horizontal=0;startSize=0;swimlaneHead=0;swimlaneBody=0;fillColor=none;collapsible=0;dropTarget=0;points=[[0,0.5],[1,0.5]];portConstraint=eastwest;top=0;left=0;right=0;bottom=0;fontSize=16;movableLabel=1;" vertex="1" parent="YA1a-GJQUqU829EVLrWt-81">
          <mxGeometry y="89" width="235" height="39" as="geometry" />
        </mxCell>
        <mxCell id="YA1a-GJQUqU829EVLrWt-86" value="FK1" style="shape=partialRectangle;connectable=0;fillColor=none;top=0;left=0;bottom=0;right=0;editable=1;overflow=hidden;whiteSpace=wrap;html=1;fontSize=16;movableLabel=1;" vertex="1" parent="YA1a-GJQUqU829EVLrWt-85">
          <mxGeometry width="50" height="39" as="geometry">
            <mxRectangle width="50" height="39" as="alternateBounds" />
          </mxGeometry>
        </mxCell>
        <mxCell id="YA1a-GJQUqU829EVLrWt-87" value="product_key" style="shape=partialRectangle;connectable=0;fillColor=none;top=0;left=0;bottom=0;right=0;align=left;spacingLeft=6;overflow=hidden;whiteSpace=wrap;html=1;fontSize=16;movableLabel=1;" vertex="1" parent="YA1a-GJQUqU829EVLrWt-85">
          <mxGeometry x="50" width="185" height="39" as="geometry">
            <mxRectangle width="185" height="39" as="alternateBounds" />
          </mxGeometry>
        </mxCell>
        <mxCell id="YA1a-GJQUqU829EVLrWt-88" value="" style="shape=tableRow;horizontal=0;startSize=0;swimlaneHead=0;swimlaneBody=0;fillColor=none;collapsible=0;dropTarget=0;points=[[0,0.5],[1,0.5]];portConstraint=eastwest;top=0;left=0;right=0;bottom=0;fontSize=16;movableLabel=1;" vertex="1" parent="YA1a-GJQUqU829EVLrWt-81">
          <mxGeometry y="128" width="235" height="39" as="geometry" />
        </mxCell>
        <mxCell id="YA1a-GJQUqU829EVLrWt-89" value="FK2" style="shape=partialRectangle;connectable=0;fillColor=none;top=0;left=0;bottom=0;right=0;editable=1;overflow=hidden;whiteSpace=wrap;html=1;fontSize=16;movableLabel=1;" vertex="1" parent="YA1a-GJQUqU829EVLrWt-88">
          <mxGeometry width="50" height="39" as="geometry">
            <mxRectangle width="50" height="39" as="alternateBounds" />
          </mxGeometry>
        </mxCell>
        <mxCell id="YA1a-GJQUqU829EVLrWt-90" value="customer_key" style="shape=partialRectangle;connectable=0;fillColor=none;top=0;left=0;bottom=0;right=0;align=left;spacingLeft=6;overflow=hidden;whiteSpace=wrap;html=1;fontSize=16;movableLabel=1;" vertex="1" parent="YA1a-GJQUqU829EVLrWt-88">
          <mxGeometry x="50" width="185" height="39" as="geometry">
            <mxRectangle width="185" height="39" as="alternateBounds" />
          </mxGeometry>
        </mxCell>
        <mxCell id="YA1a-GJQUqU829EVLrWt-91" value="" style="shape=tableRow;horizontal=0;startSize=0;swimlaneHead=0;swimlaneBody=0;fillColor=none;collapsible=0;dropTarget=0;points=[[0,0.5],[1,0.5]];portConstraint=eastwest;top=0;left=0;right=0;bottom=0;fontSize=16;movableLabel=1;" vertex="1" parent="YA1a-GJQUqU829EVLrWt-81">
          <mxGeometry y="167" width="235" height="39" as="geometry" />
        </mxCell>
        <mxCell id="YA1a-GJQUqU829EVLrWt-92" value="" style="shape=partialRectangle;connectable=0;fillColor=none;top=0;left=0;bottom=0;right=0;editable=1;overflow=hidden;whiteSpace=wrap;html=1;fontSize=16;movableLabel=1;" vertex="1" parent="YA1a-GJQUqU829EVLrWt-91">
          <mxGeometry width="50" height="39" as="geometry">
            <mxRectangle width="50" height="39" as="alternateBounds" />
          </mxGeometry>
        </mxCell>
        <mxCell id="YA1a-GJQUqU829EVLrWt-93" value="order_date" style="shape=partialRectangle;connectable=0;fillColor=none;top=0;left=0;bottom=0;right=0;align=left;spacingLeft=6;overflow=hidden;whiteSpace=wrap;html=1;fontSize=16;movableLabel=1;" vertex="1" parent="YA1a-GJQUqU829EVLrWt-91">
          <mxGeometry x="50" width="185" height="39" as="geometry">
            <mxRectangle width="185" height="39" as="alternateBounds" />
          </mxGeometry>
        </mxCell>
        <mxCell id="YA1a-GJQUqU829EVLrWt-94" value="" style="shape=tableRow;horizontal=0;startSize=0;swimlaneHead=0;swimlaneBody=0;fillColor=none;collapsible=0;dropTarget=0;points=[[0,0.5],[1,0.5]];portConstraint=eastwest;top=0;left=0;right=0;bottom=0;fontSize=16;movableLabel=1;" vertex="1" parent="YA1a-GJQUqU829EVLrWt-81">
          <mxGeometry y="206" width="235" height="39" as="geometry" />
        </mxCell>
        <mxCell id="YA1a-GJQUqU829EVLrWt-95" value="" style="shape=partialRectangle;connectable=0;fillColor=none;top=0;left=0;bottom=0;right=0;editable=1;overflow=hidden;whiteSpace=wrap;html=1;fontSize=16;movableLabel=1;" vertex="1" parent="YA1a-GJQUqU829EVLrWt-94">
          <mxGeometry width="50" height="39" as="geometry">
            <mxRectangle width="50" height="39" as="alternateBounds" />
          </mxGeometry>
        </mxCell>
        <mxCell id="YA1a-GJQUqU829EVLrWt-96" value="ship_date" style="shape=partialRectangle;connectable=0;fillColor=none;top=0;left=0;bottom=0;right=0;align=left;spacingLeft=6;overflow=hidden;whiteSpace=wrap;html=1;fontSize=16;movableLabel=1;" vertex="1" parent="YA1a-GJQUqU829EVLrWt-94">
          <mxGeometry x="50" width="185" height="39" as="geometry">
            <mxRectangle width="185" height="39" as="alternateBounds" />
          </mxGeometry>
        </mxCell>
        <mxCell id="YA1a-GJQUqU829EVLrWt-97" value="" style="shape=tableRow;horizontal=0;startSize=0;swimlaneHead=0;swimlaneBody=0;fillColor=none;collapsible=0;dropTarget=0;points=[[0,0.5],[1,0.5]];portConstraint=eastwest;top=0;left=0;right=0;bottom=0;fontSize=16;movableLabel=1;" vertex="1" parent="YA1a-GJQUqU829EVLrWt-81">
          <mxGeometry y="245" width="235" height="39" as="geometry" />
        </mxCell>
        <mxCell id="YA1a-GJQUqU829EVLrWt-98" value="" style="shape=partialRectangle;connectable=0;fillColor=none;top=0;left=0;bottom=0;right=0;editable=1;overflow=hidden;whiteSpace=wrap;html=1;fontSize=16;movableLabel=1;" vertex="1" parent="YA1a-GJQUqU829EVLrWt-97">
          <mxGeometry width="50" height="39" as="geometry">
            <mxRectangle width="50" height="39" as="alternateBounds" />
          </mxGeometry>
        </mxCell>
        <mxCell id="YA1a-GJQUqU829EVLrWt-99" value="due_date" style="shape=partialRectangle;connectable=0;fillColor=none;top=0;left=0;bottom=0;right=0;align=left;spacingLeft=6;overflow=hidden;whiteSpace=wrap;html=1;fontSize=16;movableLabel=1;" vertex="1" parent="YA1a-GJQUqU829EVLrWt-97">
          <mxGeometry x="50" width="185" height="39" as="geometry">
            <mxRectangle width="185" height="39" as="alternateBounds" />
          </mxGeometry>
        </mxCell>
        <mxCell id="YA1a-GJQUqU829EVLrWt-100" value="" style="shape=tableRow;horizontal=0;startSize=0;swimlaneHead=0;swimlaneBody=0;fillColor=none;collapsible=0;dropTarget=0;points=[[0,0.5],[1,0.5]];portConstraint=eastwest;top=0;left=0;right=0;bottom=0;fontSize=16;movableLabel=1;" vertex="1" parent="YA1a-GJQUqU829EVLrWt-81">
          <mxGeometry y="284" width="235" height="39" as="geometry" />
        </mxCell>
        <mxCell id="YA1a-GJQUqU829EVLrWt-101" value="" style="shape=partialRectangle;connectable=0;fillColor=none;top=0;left=0;bottom=0;right=0;editable=1;overflow=hidden;whiteSpace=wrap;html=1;fontSize=16;movableLabel=1;" vertex="1" parent="YA1a-GJQUqU829EVLrWt-100">
          <mxGeometry width="50" height="39" as="geometry">
            <mxRectangle width="50" height="39" as="alternateBounds" />
          </mxGeometry>
        </mxCell>
        <mxCell id="YA1a-GJQUqU829EVLrWt-102" value="sales_amount" style="shape=partialRectangle;connectable=0;fillColor=none;top=0;left=0;bottom=0;right=0;align=left;spacingLeft=6;overflow=hidden;whiteSpace=wrap;html=1;fontSize=16;movableLabel=1;" vertex="1" parent="YA1a-GJQUqU829EVLrWt-100">
          <mxGeometry x="50" width="185" height="39" as="geometry">
            <mxRectangle width="185" height="39" as="alternateBounds" />
          </mxGeometry>
        </mxCell>
        <mxCell id="YA1a-GJQUqU829EVLrWt-103" value="" style="shape=tableRow;horizontal=0;startSize=0;swimlaneHead=0;swimlaneBody=0;fillColor=none;collapsible=0;dropTarget=0;points=[[0,0.5],[1,0.5]];portConstraint=eastwest;top=0;left=0;right=0;bottom=0;fontSize=16;movableLabel=1;" vertex="1" parent="YA1a-GJQUqU829EVLrWt-81">
          <mxGeometry y="323" width="235" height="39" as="geometry" />
        </mxCell>
        <mxCell id="YA1a-GJQUqU829EVLrWt-104" value="" style="shape=partialRectangle;connectable=0;fillColor=none;top=0;left=0;bottom=0;right=0;editable=1;overflow=hidden;whiteSpace=wrap;html=1;fontSize=16;movableLabel=1;" vertex="1" parent="YA1a-GJQUqU829EVLrWt-103">
          <mxGeometry width="50" height="39" as="geometry">
            <mxRectangle width="50" height="39" as="alternateBounds" />
          </mxGeometry>
        </mxCell>
        <mxCell id="YA1a-GJQUqU829EVLrWt-105" value="quantity" style="shape=partialRectangle;connectable=0;fillColor=none;top=0;left=0;bottom=0;right=0;align=left;spacingLeft=6;overflow=hidden;whiteSpace=wrap;html=1;fontSize=16;movableLabel=1;" vertex="1" parent="YA1a-GJQUqU829EVLrWt-103">
          <mxGeometry x="50" width="185" height="39" as="geometry">
            <mxRectangle width="185" height="39" as="alternateBounds" />
          </mxGeometry>
        </mxCell>
        <mxCell id="YA1a-GJQUqU829EVLrWt-106" value="" style="shape=tableRow;horizontal=0;startSize=0;swimlaneHead=0;swimlaneBody=0;fillColor=none;collapsible=0;dropTarget=0;points=[[0,0.5],[1,0.5]];portConstraint=eastwest;top=0;left=0;right=0;bottom=0;fontSize=16;movableLabel=1;" vertex="1" parent="YA1a-GJQUqU829EVLrWt-81">
          <mxGeometry y="362" width="235" height="39" as="geometry" />
        </mxCell>
        <mxCell id="YA1a-GJQUqU829EVLrWt-107" value="" style="shape=partialRectangle;connectable=0;fillColor=none;top=0;left=0;bottom=0;right=0;editable=1;overflow=hidden;whiteSpace=wrap;html=1;fontSize=16;movableLabel=1;" vertex="1" parent="YA1a-GJQUqU829EVLrWt-106">
          <mxGeometry width="50" height="39" as="geometry">
            <mxRectangle width="50" height="39" as="alternateBounds" />
          </mxGeometry>
        </mxCell>
        <mxCell id="YA1a-GJQUqU829EVLrWt-108" value="price" style="shape=partialRectangle;connectable=0;fillColor=none;top=0;left=0;bottom=0;right=0;align=left;spacingLeft=6;overflow=hidden;whiteSpace=wrap;html=1;fontSize=16;movableLabel=1;" vertex="1" parent="YA1a-GJQUqU829EVLrWt-106">
          <mxGeometry x="50" width="185" height="39" as="geometry">
            <mxRectangle width="185" height="39" as="alternateBounds" />
          </mxGeometry>
        </mxCell>
        <mxCell id="YA1a-GJQUqU829EVLrWt-47" value="gold.dim_products" style="shape=table;startSize=50;container=1;collapsible=1;childLayout=tableLayout;fixedRows=1;rowLines=0;fontStyle=1;align=center;resizeLast=1;html=1;rounded=1;fillColor=#fff2cc;strokeColor=#d6b656;fontSize=16;" vertex="1" parent="1">
          <mxGeometry x="850" y="160" width="235" height="479" as="geometry" />
        </mxCell>
        <mxCell id="YA1a-GJQUqU829EVLrWt-48" value="" style="shape=tableRow;horizontal=0;startSize=0;swimlaneHead=0;swimlaneBody=0;fillColor=none;collapsible=0;dropTarget=0;points=[[0,0.5],[1,0.5]];portConstraint=eastwest;top=0;left=0;right=0;bottom=1;fontSize=16;" vertex="1" parent="YA1a-GJQUqU829EVLrWt-47">
          <mxGeometry y="50" width="235" height="39" as="geometry" />
        </mxCell>
        <mxCell id="YA1a-GJQUqU829EVLrWt-49" value="PK" style="shape=partialRectangle;connectable=0;fillColor=none;top=0;left=0;bottom=0;right=0;fontStyle=1;overflow=hidden;whiteSpace=wrap;html=1;fontSize=16;" vertex="1" parent="YA1a-GJQUqU829EVLrWt-48">
          <mxGeometry width="30" height="39" as="geometry">
            <mxRectangle width="30" height="39" as="alternateBounds" />
          </mxGeometry>
        </mxCell>
        <mxCell id="YA1a-GJQUqU829EVLrWt-50" value="product_key" style="shape=partialRectangle;connectable=0;fillColor=none;top=0;left=0;bottom=0;right=0;align=left;spacingLeft=6;fontStyle=5;overflow=hidden;whiteSpace=wrap;html=1;fontSize=16;" vertex="1" parent="YA1a-GJQUqU829EVLrWt-48">
          <mxGeometry x="30" width="205" height="39" as="geometry">
            <mxRectangle width="205" height="39" as="alternateBounds" />
          </mxGeometry>
        </mxCell>
        <mxCell id="YA1a-GJQUqU829EVLrWt-51" value="" style="shape=tableRow;horizontal=0;startSize=0;swimlaneHead=0;swimlaneBody=0;fillColor=none;collapsible=0;dropTarget=0;points=[[0,0.5],[1,0.5]];portConstraint=eastwest;top=0;left=0;right=0;bottom=0;fontSize=16;" vertex="1" parent="YA1a-GJQUqU829EVLrWt-47">
          <mxGeometry y="89" width="235" height="39" as="geometry" />
        </mxCell>
        <mxCell id="YA1a-GJQUqU829EVLrWt-52" value="" style="shape=partialRectangle;connectable=0;fillColor=none;top=0;left=0;bottom=0;right=0;editable=1;overflow=hidden;whiteSpace=wrap;html=1;fontSize=16;" vertex="1" parent="YA1a-GJQUqU829EVLrWt-51">
          <mxGeometry width="30" height="39" as="geometry">
            <mxRectangle width="30" height="39" as="alternateBounds" />
          </mxGeometry>
        </mxCell>
        <mxCell id="YA1a-GJQUqU829EVLrWt-53" value="product_id" style="shape=partialRectangle;connectable=0;fillColor=none;top=0;left=0;bottom=0;right=0;align=left;spacingLeft=6;overflow=hidden;whiteSpace=wrap;html=1;fontSize=16;" vertex="1" parent="YA1a-GJQUqU829EVLrWt-51">
          <mxGeometry x="30" width="205" height="39" as="geometry">
            <mxRectangle width="205" height="39" as="alternateBounds" />
          </mxGeometry>
        </mxCell>
        <mxCell id="YA1a-GJQUqU829EVLrWt-54" value="" style="shape=tableRow;horizontal=0;startSize=0;swimlaneHead=0;swimlaneBody=0;fillColor=none;collapsible=0;dropTarget=0;points=[[0,0.5],[1,0.5]];portConstraint=eastwest;top=0;left=0;right=0;bottom=0;fontSize=16;" vertex="1" parent="YA1a-GJQUqU829EVLrWt-47">
          <mxGeometry y="128" width="235" height="39" as="geometry" />
        </mxCell>
        <mxCell id="YA1a-GJQUqU829EVLrWt-55" value="" style="shape=partialRectangle;connectable=0;fillColor=none;top=0;left=0;bottom=0;right=0;editable=1;overflow=hidden;whiteSpace=wrap;html=1;fontSize=16;" vertex="1" parent="YA1a-GJQUqU829EVLrWt-54">
          <mxGeometry width="30" height="39" as="geometry">
            <mxRectangle width="30" height="39" as="alternateBounds" />
          </mxGeometry>
        </mxCell>
        <mxCell id="YA1a-GJQUqU829EVLrWt-56" value="product_number" style="shape=partialRectangle;connectable=0;fillColor=none;top=0;left=0;bottom=0;right=0;align=left;spacingLeft=6;overflow=hidden;whiteSpace=wrap;html=1;fontSize=16;" vertex="1" parent="YA1a-GJQUqU829EVLrWt-54">
          <mxGeometry x="30" width="205" height="39" as="geometry">
            <mxRectangle width="205" height="39" as="alternateBounds" />
          </mxGeometry>
        </mxCell>
        <mxCell id="YA1a-GJQUqU829EVLrWt-57" value="" style="shape=tableRow;horizontal=0;startSize=0;swimlaneHead=0;swimlaneBody=0;fillColor=none;collapsible=0;dropTarget=0;points=[[0,0.5],[1,0.5]];portConstraint=eastwest;top=0;left=0;right=0;bottom=0;fontSize=16;" vertex="1" parent="YA1a-GJQUqU829EVLrWt-47">
          <mxGeometry y="167" width="235" height="39" as="geometry" />
        </mxCell>
        <mxCell id="YA1a-GJQUqU829EVLrWt-58" value="" style="shape=partialRectangle;connectable=0;fillColor=none;top=0;left=0;bottom=0;right=0;editable=1;overflow=hidden;whiteSpace=wrap;html=1;fontSize=16;" vertex="1" parent="YA1a-GJQUqU829EVLrWt-57">
          <mxGeometry width="30" height="39" as="geometry">
            <mxRectangle width="30" height="39" as="alternateBounds" />
          </mxGeometry>
        </mxCell>
        <mxCell id="YA1a-GJQUqU829EVLrWt-59" value="product_name" style="shape=partialRectangle;connectable=0;fillColor=none;top=0;left=0;bottom=0;right=0;align=left;spacingLeft=6;overflow=hidden;whiteSpace=wrap;html=1;fontSize=16;" vertex="1" parent="YA1a-GJQUqU829EVLrWt-57">
          <mxGeometry x="30" width="205" height="39" as="geometry">
            <mxRectangle width="205" height="39" as="alternateBounds" />
          </mxGeometry>
        </mxCell>
        <mxCell id="YA1a-GJQUqU829EVLrWt-60" value="" style="shape=tableRow;horizontal=0;startSize=0;swimlaneHead=0;swimlaneBody=0;fillColor=none;collapsible=0;dropTarget=0;points=[[0,0.5],[1,0.5]];portConstraint=eastwest;top=0;left=0;right=0;bottom=0;fontSize=16;" vertex="1" parent="YA1a-GJQUqU829EVLrWt-47">
          <mxGeometry y="206" width="235" height="39" as="geometry" />
        </mxCell>
        <mxCell id="YA1a-GJQUqU829EVLrWt-61" value="" style="shape=partialRectangle;connectable=0;fillColor=none;top=0;left=0;bottom=0;right=0;editable=1;overflow=hidden;whiteSpace=wrap;html=1;fontSize=16;" vertex="1" parent="YA1a-GJQUqU829EVLrWt-60">
          <mxGeometry width="30" height="39" as="geometry">
            <mxRectangle width="30" height="39" as="alternateBounds" />
          </mxGeometry>
        </mxCell>
        <mxCell id="YA1a-GJQUqU829EVLrWt-62" value="category_id" style="shape=partialRectangle;connectable=0;fillColor=none;top=0;left=0;bottom=0;right=0;align=left;spacingLeft=6;overflow=hidden;whiteSpace=wrap;html=1;fontSize=16;" vertex="1" parent="YA1a-GJQUqU829EVLrWt-60">
          <mxGeometry x="30" width="205" height="39" as="geometry">
            <mxRectangle width="205" height="39" as="alternateBounds" />
          </mxGeometry>
        </mxCell>
        <mxCell id="YA1a-GJQUqU829EVLrWt-63" value="" style="shape=tableRow;horizontal=0;startSize=0;swimlaneHead=0;swimlaneBody=0;fillColor=none;collapsible=0;dropTarget=0;points=[[0,0.5],[1,0.5]];portConstraint=eastwest;top=0;left=0;right=0;bottom=0;fontSize=16;" vertex="1" parent="YA1a-GJQUqU829EVLrWt-47">
          <mxGeometry y="245" width="235" height="39" as="geometry" />
        </mxCell>
        <mxCell id="YA1a-GJQUqU829EVLrWt-64" value="" style="shape=partialRectangle;connectable=0;fillColor=none;top=0;left=0;bottom=0;right=0;editable=1;overflow=hidden;whiteSpace=wrap;html=1;fontSize=16;" vertex="1" parent="YA1a-GJQUqU829EVLrWt-63">
          <mxGeometry width="30" height="39" as="geometry">
            <mxRectangle width="30" height="39" as="alternateBounds" />
          </mxGeometry>
        </mxCell>
        <mxCell id="YA1a-GJQUqU829EVLrWt-65" value="category" style="shape=partialRectangle;connectable=0;fillColor=none;top=0;left=0;bottom=0;right=0;align=left;spacingLeft=6;overflow=hidden;whiteSpace=wrap;html=1;fontSize=16;" vertex="1" parent="YA1a-GJQUqU829EVLrWt-63">
          <mxGeometry x="30" width="205" height="39" as="geometry">
            <mxRectangle width="205" height="39" as="alternateBounds" />
          </mxGeometry>
        </mxCell>
        <mxCell id="YA1a-GJQUqU829EVLrWt-66" value="" style="shape=tableRow;horizontal=0;startSize=0;swimlaneHead=0;swimlaneBody=0;fillColor=none;collapsible=0;dropTarget=0;points=[[0,0.5],[1,0.5]];portConstraint=eastwest;top=0;left=0;right=0;bottom=0;fontSize=16;" vertex="1" parent="YA1a-GJQUqU829EVLrWt-47">
          <mxGeometry y="284" width="235" height="39" as="geometry" />
        </mxCell>
        <mxCell id="YA1a-GJQUqU829EVLrWt-67" value="" style="shape=partialRectangle;connectable=0;fillColor=none;top=0;left=0;bottom=0;right=0;editable=1;overflow=hidden;whiteSpace=wrap;html=1;fontSize=16;" vertex="1" parent="YA1a-GJQUqU829EVLrWt-66">
          <mxGeometry width="30" height="39" as="geometry">
            <mxRectangle width="30" height="39" as="alternateBounds" />
          </mxGeometry>
        </mxCell>
        <mxCell id="YA1a-GJQUqU829EVLrWt-68" value="subcategory" style="shape=partialRectangle;connectable=0;fillColor=none;top=0;left=0;bottom=0;right=0;align=left;spacingLeft=6;overflow=hidden;whiteSpace=wrap;html=1;fontSize=16;" vertex="1" parent="YA1a-GJQUqU829EVLrWt-66">
          <mxGeometry x="30" width="205" height="39" as="geometry">
            <mxRectangle width="205" height="39" as="alternateBounds" />
          </mxGeometry>
        </mxCell>
        <mxCell id="YA1a-GJQUqU829EVLrWt-69" value="" style="shape=tableRow;horizontal=0;startSize=0;swimlaneHead=0;swimlaneBody=0;fillColor=none;collapsible=0;dropTarget=0;points=[[0,0.5],[1,0.5]];portConstraint=eastwest;top=0;left=0;right=0;bottom=0;fontSize=16;" vertex="1" parent="YA1a-GJQUqU829EVLrWt-47">
          <mxGeometry y="323" width="235" height="39" as="geometry" />
        </mxCell>
        <mxCell id="YA1a-GJQUqU829EVLrWt-70" value="" style="shape=partialRectangle;connectable=0;fillColor=none;top=0;left=0;bottom=0;right=0;editable=1;overflow=hidden;whiteSpace=wrap;html=1;fontSize=16;" vertex="1" parent="YA1a-GJQUqU829EVLrWt-69">
          <mxGeometry width="30" height="39" as="geometry">
            <mxRectangle width="30" height="39" as="alternateBounds" />
          </mxGeometry>
        </mxCell>
        <mxCell id="YA1a-GJQUqU829EVLrWt-71" value="maintenance" style="shape=partialRectangle;connectable=0;fillColor=none;top=0;left=0;bottom=0;right=0;align=left;spacingLeft=6;overflow=hidden;whiteSpace=wrap;html=1;fontSize=16;" vertex="1" parent="YA1a-GJQUqU829EVLrWt-69">
          <mxGeometry x="30" width="205" height="39" as="geometry">
            <mxRectangle width="205" height="39" as="alternateBounds" />
          </mxGeometry>
        </mxCell>
        <mxCell id="YA1a-GJQUqU829EVLrWt-72" value="" style="shape=tableRow;horizontal=0;startSize=0;swimlaneHead=0;swimlaneBody=0;fillColor=none;collapsible=0;dropTarget=0;points=[[0,0.5],[1,0.5]];portConstraint=eastwest;top=0;left=0;right=0;bottom=0;fontSize=16;" vertex="1" parent="YA1a-GJQUqU829EVLrWt-47">
          <mxGeometry y="362" width="235" height="39" as="geometry" />
        </mxCell>
        <mxCell id="YA1a-GJQUqU829EVLrWt-73" value="" style="shape=partialRectangle;connectable=0;fillColor=none;top=0;left=0;bottom=0;right=0;editable=1;overflow=hidden;whiteSpace=wrap;html=1;fontSize=16;" vertex="1" parent="YA1a-GJQUqU829EVLrWt-72">
          <mxGeometry width="30" height="39" as="geometry">
            <mxRectangle width="30" height="39" as="alternateBounds" />
          </mxGeometry>
        </mxCell>
        <mxCell id="YA1a-GJQUqU829EVLrWt-74" value="cost" style="shape=partialRectangle;connectable=0;fillColor=none;top=0;left=0;bottom=0;right=0;align=left;spacingLeft=6;overflow=hidden;whiteSpace=wrap;html=1;fontSize=16;" vertex="1" parent="YA1a-GJQUqU829EVLrWt-72">
          <mxGeometry x="30" width="205" height="39" as="geometry">
            <mxRectangle width="205" height="39" as="alternateBounds" />
          </mxGeometry>
        </mxCell>
        <mxCell id="YA1a-GJQUqU829EVLrWt-75" value="" style="shape=tableRow;horizontal=0;startSize=0;swimlaneHead=0;swimlaneBody=0;fillColor=none;collapsible=0;dropTarget=0;points=[[0,0.5],[1,0.5]];portConstraint=eastwest;top=0;left=0;right=0;bottom=0;fontSize=16;" vertex="1" parent="YA1a-GJQUqU829EVLrWt-47">
          <mxGeometry y="401" width="235" height="39" as="geometry" />
        </mxCell>
        <mxCell id="YA1a-GJQUqU829EVLrWt-76" value="" style="shape=partialRectangle;connectable=0;fillColor=none;top=0;left=0;bottom=0;right=0;editable=1;overflow=hidden;whiteSpace=wrap;html=1;fontSize=16;" vertex="1" parent="YA1a-GJQUqU829EVLrWt-75">
          <mxGeometry width="30" height="39" as="geometry">
            <mxRectangle width="30" height="39" as="alternateBounds" />
          </mxGeometry>
        </mxCell>
        <mxCell id="YA1a-GJQUqU829EVLrWt-77" value="product_line" style="shape=partialRectangle;connectable=0;fillColor=none;top=0;left=0;bottom=0;right=0;align=left;spacingLeft=6;overflow=hidden;whiteSpace=wrap;html=1;fontSize=16;" vertex="1" parent="YA1a-GJQUqU829EVLrWt-75">
          <mxGeometry x="30" width="205" height="39" as="geometry">
            <mxRectangle width="205" height="39" as="alternateBounds" />
          </mxGeometry>
        </mxCell>
        <mxCell id="YA1a-GJQUqU829EVLrWt-78" value="" style="shape=tableRow;horizontal=0;startSize=0;swimlaneHead=0;swimlaneBody=0;fillColor=none;collapsible=0;dropTarget=0;points=[[0,0.5],[1,0.5]];portConstraint=eastwest;top=0;left=0;right=0;bottom=0;fontSize=16;" vertex="1" parent="YA1a-GJQUqU829EVLrWt-47">
          <mxGeometry y="440" width="235" height="39" as="geometry" />
        </mxCell>
        <mxCell id="YA1a-GJQUqU829EVLrWt-79" value="" style="shape=partialRectangle;connectable=0;fillColor=none;top=0;left=0;bottom=0;right=0;editable=1;overflow=hidden;whiteSpace=wrap;html=1;fontSize=16;" vertex="1" parent="YA1a-GJQUqU829EVLrWt-78">
          <mxGeometry width="30" height="39" as="geometry">
            <mxRectangle width="30" height="39" as="alternateBounds" />
          </mxGeometry>
        </mxCell>
        <mxCell id="YA1a-GJQUqU829EVLrWt-80" value="start_date" style="shape=partialRectangle;connectable=0;fillColor=none;top=0;left=0;bottom=0;right=0;align=left;spacingLeft=6;overflow=hidden;whiteSpace=wrap;html=1;fontSize=16;" vertex="1" parent="YA1a-GJQUqU829EVLrWt-78">
          <mxGeometry x="30" width="205" height="39" as="geometry">
            <mxRectangle width="205" height="39" as="alternateBounds" />
          </mxGeometry>
        </mxCell>
        <mxCell id="YA1a-GJQUqU829EVLrWt-128" value="" style="edgeStyle=entityRelationEdgeStyle;fontSize=12;html=1;endArrow=ERzeroToMany;startArrow=ERmandOne;rounded=0;exitX=1;exitY=0.5;exitDx=0;exitDy=0;entryX=0;entryY=0.5;entryDx=0;entryDy=0;" edge="1" parent="1" source="YA1a-GJQUqU829EVLrWt-17" target="YA1a-GJQUqU829EVLrWt-88">
          <mxGeometry width="100" height="100" relative="1" as="geometry">
            <mxPoint x="360" y="470" as="sourcePoint" />
            <mxPoint x="440" y="300" as="targetPoint" />
            <Array as="points">
              <mxPoint x="370" y="300" />
            </Array>
          </mxGeometry>
        </mxCell>
        <mxCell id="YA1a-GJQUqU829EVLrWt-129" value="" style="edgeStyle=entityRelationEdgeStyle;fontSize=12;html=1;endArrow=ERzeroToMany;startArrow=ERmandOne;rounded=0;exitX=0;exitY=0.5;exitDx=0;exitDy=0;entryX=1.009;entryY=0.312;entryDx=0;entryDy=0;entryPerimeter=0;" edge="1" parent="1" source="YA1a-GJQUqU829EVLrWt-48" target="YA1a-GJQUqU829EVLrWt-85">
          <mxGeometry width="100" height="100" relative="1" as="geometry">
            <mxPoint x="730" y="220" as="sourcePoint" />
            <mxPoint x="790" y="320" as="targetPoint" />
            <Array as="points">
              <mxPoint x="820" y="280" />
            </Array>
          </mxGeometry>
        </mxCell>
        <mxCell id="YA1a-GJQUqU829EVLrWt-130" value="&lt;h1 style=&quot;margin-top: 0px;&quot;&gt;&lt;font style=&quot;font-size: 18px;&quot;&gt;Sales Calculation&lt;/font&gt;&lt;/h1&gt;&lt;p&gt;&lt;font style=&quot;font-size: 15px;&quot;&gt;Sales = Quantity * Price&lt;/font&gt;&lt;/p&gt;" style="text;html=1;whiteSpace=wrap;overflow=hidden;rounded=0;fillColor=none;strokeColor=none;" vertex="1" parent="1">
          <mxGeometry x="610" y="600" width="180" height="90" as="geometry" />
        </mxCell>
        <mxCell id="YA1a-GJQUqU829EVLrWt-131" value="" style="endArrow=none;dashed=1;html=1;dashPattern=1 3;strokeWidth=2;rounded=0;entryX=0.5;entryY=0;entryDx=0;entryDy=0;" edge="1" parent="1" source="YA1a-GJQUqU829EVLrWt-100" target="YA1a-GJQUqU829EVLrWt-130">
          <mxGeometry width="50" height="50" relative="1" as="geometry">
            <mxPoint x="320" y="665" as="sourcePoint" />
            <mxPoint x="370" y="615" as="targetPoint" />
          </mxGeometry>
        </mxCell>
      </root>
    </mxGraphModel>
  </diagram>
</mxfile>
